#!OML:ASF E:/inclinewalkrobotboard/Project1/Captureday1/Session1/subject1.ASF
:FULLY-SPECIFIED
:DEGREES
313
root 0 0 0 -1.3783443635624464 -1.2834664608435205 -4.010707622216693
lowerback 19.870973919835397 2.982154546163927 0.008147519229491307
upperback 2.1342072694564735 4.025124044184915 -0.47384048393525635
thorax -8.816798791541336 1.9416366920852517 -1.1716191734018937
lowerneck -8.47453925838872 -5.998918088079949 -1.4041031446417633
upperneck -0.7610065147850573 -8.664521180604607 5.767185747847554
head 1.448553708409536 -3.966915845678603 1.4970944759270721
rclavicle -8.708757554245706E-16 4.148165058616739E-16
rhumerus 36.110192920691006 -5.400340952244279 -28.863110963524946
rradius 148.89559772266057
rwrist -24.99498567279405
rhand -19.06022201696449 -31.58493076465112
rfingers 7.125019999999956
rthumb 7.265987781749494 -61.37629400868228
lclavicle -2.1829823220189374E-15 8.117571262158801E-16
lhumerus -47.020364030753285 -6.554183242040187 80.34797581704186
lradius 62.15061759488947
lwrist 10.784746986062157
lhand -14.39206673162143 -20.240649100660132
lfingers 7.125019999999874
lthumb 11.683607997007789 9.426797569572894
rfemur -8.291146683160884 8.467427300667989 34.89714101126347
rtibia 30.202482199957018
rfoot -19.02900685118107 -7.982029621150174
rtoes 8.41183003868234
lfemur -22.350238878692835 3.4452684929154693 -13.76645324343966
ltibia 63.702536573481524
lfoot -1.779586756444207 -7.44173137614128
ltoes -5.504819295312679
314
root 0 0 0 -1.4241919078044192 -1.3684516403296239 -4.008549897223569
lowerback 19.736525755853947 3.018292673087628 0.09803742677095528
upperback 2.188532735652617 4.075957695479585 -0.5085194285314953
thorax -8.686263138305197 1.964916704084743 -1.2613865841596086
lowerneck -8.567326371892388 -5.9888384925654155 -1.4824975890659047
upperneck -0.8548085175800981 -8.654247838063199 5.8580837352105295
head 1.4101879515640299 -3.9607534516500635 1.5394866314346225
rclavicle -9.17279057487726E-16 4.3326436543083625E-16
rhumerus 36.45021060713053 -4.453011515773779 -28.875092198701743
rradius 149.84332124956052
rwrist -25.009260179045363
rhand -19.11084406534995 -31.333407139291033
rfingers 7.125019999999953
rthumb 7.217617342886178 -61.129920080348384
lclavicle -2.0232792926511234E-15 7.59140134554601E-16
lhumerus -47.20517730918129 -6.396170065036776 80.11132354351147
lradius 62.0997306575365
lwrist 10.800673823538038
lhand -14.451083157591984 -20.090782288645528
lfingers 7.125019999999871
lthumb 11.62829641740788 9.597301912607374
rfemur -3.8916896546739883 8.887690398453486 35.50098806866867
rtibia 27.565264582231187
rfoot -20.653031895883455 -7.9931267279446745
rtoes 7.216490942966309
lfemur -23.4011096217289 3.242386116212154 -13.957162420492281
ltibia 61.466638800229006
lfoot -2.222174631564279 -6.748652105343177
ltoes -3.830945243911316
315
root 0 0 0 -1.4513537154337621 -1.4365476321269917 -4.00606914850985
lowerback 19.69962462725497 3.033261406277983 0.13811175087479066
upperback 2.2193807955390583 4.097339396529323 -0.5220534003489155
thorax -8.63509490070831 1.9743551704494995 -1.2996747239637234
lowerneck -8.601421056313246 -5.975791784574483 -1.5043338193187463
upperneck -0.924478233343704 -8.634251275838732 5.878508771460966
head 1.3851372540356337 -3.9520357952358136 1.5511351949957404
rclavicle -9.47580814639807E-16 5.34006685602425E-16
rhumerus 36.598270142076835 -3.990400942908711 -28.922685831804728
rradius 150.37409558723726
rwrist -24.975738263249752
rhand -19.185332810898576 -31.193630061697334
rfingers 7.125019999999952
rthumb 7.146084566314358 -60.99613812752525
lclavicle -1.8644407262517722E-15 7.9084967692287E-16
lhumerus -47.31345001063873 -6.285567226558747 79.9573762293629
lradius 62.05564012741035
lwrist 10.800836951416418
lhand -14.491265130817936 -20.008731951596275
lfingers 7.12501999999987
lthumb 11.591185399595025 9.695907802492073
rfemur -1.3731097717556269 8.991013597398009 35.72217682948414
rtibia 26.6041684334468
rfoot -21.435575477704017 -7.920988362094738
rtoes 6.4525905076270815
lfemur -24.498247187238707 2.920741542974493 -14.362182196787785
ltibia 58.347585057892395
lfoot -2.601072594453246 -6.022272480846397
ltoes -1.4097402265257486
316
root 0 0 0 -1.4678279503807534 -1.4891893824373694 -4.00065742973502
lowerback 19.735812016126516 3.035775902428589 0.15184700911089755
upperback 2.2417732409514084 4.101136965693369 -0.5277896403478193
thorax -8.633685556231594 1.975351399361227 -1.3142755705414138
lowerneck -8.612681432566495 -5.9630593705412664 -1.497569290029247
upperneck -1.0304681421279298 -8.611029526976544 5.859322853147372
head 1.3517312316718533 -3.9434666961233535 1.5461778543943594
rclavicle -9.106614189617628E-16 6.993538818521883E-16
rhumerus 36.62327123078372 -3.8920828665112053 -28.998950107330693
rradius 150.60152897668934
rwrist -24.85298254883227
rhand -19.281771490126207 -31.127031603999896
rfingers 7.125019999999953
rthumb 7.053851718066648 -60.93576293767727
lclavicle -1.742419133540274E-15 8.994519439390563E-16
lhumerus -47.36553075318493 -6.219751994368499 79.86326858245201
lradius 62.025362096809744
lwrist 10.803661658021033
lhand -14.521349292413797 -19.952967216620777
lfingers 7.125019999999869
lthumb 11.563006833217239 9.76304056318092
rfemur -0.31575445405476676 8.978178723158145 35.756630592236476
rtibia 26.480963157740902
rfoot -21.678871247569724 -7.891291838966165
rtoes 5.923390657644054
lfemur -25.612279579069636 2.492137788509265 -15.045320166060936
ltibia 54.35459900123807
lfoot -2.9436073007035013 -5.270021005838989
ltoes 1.880390567582836
